<svg width="40" height="40" viewBox="0 0 40 40" fill="none" xmlns="http://www.w3.org/2000/svg">
<path opacity="0.05" fill-rule="evenodd" clip-rule="evenodd" d="M0 20C0 8.95431 8.95431 0 20 0C31.0457 0 40 8.95431 40 20C40 31.0457 31.0457 40 20 40C8.95431 40 0 31.0457 0 20Z" fill="black"/>
<g opacity="0.3">
<path fill-rule="evenodd" clip-rule="evenodd" d="M19.99 10C14.47 10 10 14.48 10 20C10 25.52 14.47 30 19.99 30C25.52 30 30 25.52 30 20C30 14.48 25.52 10 19.99 10ZM20 28C15.58 28 12 24.42 12 20C12 15.58 15.58 12 20 12C24.42 12 28 15.58 28 20C28 24.42 24.42 28 20 28ZM19 15H20.5V20.25L25 22.92L24.25 24.15L19 21V15Z" fill="black"/>
</g>
</svg>
